<svg id="SvgjsSvg1077" width="502" height="600" xmlns="http://www.w3.org/2000/svg" version="1.1" xmlns:xlink="http://www.w3.org/1999/xlink" xmlns:svgjs="http://svgjs.com/svgjs"><defs id="SvgjsDefs1078"><marker id="SvgjsMarker1118" markerWidth="16" markerHeight="12" refX="16" refY="6" viewBox="0 0 16 12" orient="auto" markerUnits="userSpaceOnUse" stroke-dasharray="0,0"><path id="SvgjsPath1119" d="M0,2 L14,6 L0,11 L0,2" fill="#5c5c5c" stroke="#5c5c5c" stroke-width="2"></path></marker><marker id="SvgjsMarker1122" markerWidth="16" markerHeight="12" refX="16" refY="6" viewBox="0 0 16 12" orient="auto" markerUnits="userSpaceOnUse" stroke-dasharray="0,0"><path id="SvgjsPath1123" d="M0,2 L14,6 L0,11 L0,2" fill="#5c5c5c" stroke="#5c5c5c" stroke-width="2"></path></marker><marker id="SvgjsMarker1126" markerWidth="16" markerHeight="12" refX="16" refY="6" viewBox="0 0 16 12" orient="auto" markerUnits="userSpaceOnUse" stroke-dasharray="0,0"><path id="SvgjsPath1127" d="M0,2 L14,6 L0,11 L0,2" fill="#5c5c5c" stroke="#5c5c5c" stroke-width="2"></path></marker><marker id="SvgjsMarker1130" markerWidth="16" markerHeight="12" refX="16" refY="6" viewBox="0 0 16 12" orient="auto" markerUnits="userSpaceOnUse" stroke-dasharray="0,0"><path id="SvgjsPath1131" d="M0,2 L14,6 L0,11 L0,2" fill="#5c5c5c" stroke="#5c5c5c" stroke-width="2"></path></marker><marker id="SvgjsMarker1140" markerWidth="14" markerHeight="12" refX="16" refY="6" viewBox="0 0 14 12" orient="auto" markerUnits="userSpaceOnUse" stroke-dasharray="0,0"><path id="SvgjsPath1141" d="M1,1 L14,6 L1,11L1,1" fill="#ffffff" stroke="#5c5c5c" stroke-width="2"></path></marker></defs><rect id="SvgjsRect1079" width="502" height="600" fill="#cce5ff"></rect><g id="SvgjsG1080" transform="translate(98,130)"><path id="SvgjsPath1081" d="M 0 4Q 0 0 4 0L 303 0Q 307 0 307 4L 307 39Q 307 43 303 43L 4 43Q 0 43 0 39Z" stroke="rgba(92,92,92,1)" stroke-width="2" fill-opacity="1" fill="#ffcccc"></path><g id="SvgjsG1082"><text id="SvgjsText1083" font-family="黑体" text-anchor="middle" font-size="16px" width="287px" fill="#323232" font-weight="400" align="middle" lineHeight="125%" anchor="middle" family="黑体" size="16px" weight="400" font-style="" opacity="1" y="9.5" transform="rotate(0)"><tspan id="SvgjsTspan1084" dy="20" x="153.5"><tspan id="SvgjsTspan1085" style="text-decoration:;">http.ListenAndServe()</tspan></tspan></text></g></g><g id="SvgjsG1086" transform="translate(98,198)"><path id="SvgjsPath1087" d="M 0 4Q 0 0 4 0L 303 0Q 307 0 307 4L 307 39Q 307 43 303 43L 4 43Q 0 43 0 39Z" stroke="rgba(92,92,92,1)" stroke-width="2" fill-opacity="1" fill="#ffcccc"></path><g id="SvgjsG1088"><text id="SvgjsText1089" font-family="黑体" text-anchor="middle" font-size="16px" width="287px" fill="#323232" font-weight="400" align="middle" lineHeight="125%" anchor="middle" family="黑体" size="16px" weight="400" font-style="" opacity="1" y="9.5" transform="rotate(0)"><tspan id="SvgjsTspan1090" dy="20" x="153.5"><tspan id="SvgjsTspan1091" style="text-decoration:;">Server.ListenAndServe() </tspan></tspan></text></g></g><g id="SvgjsG1092" transform="translate(84,271)"><path id="SvgjsPath1093" d="M 0 4Q 0 0 4 0L 330 0Q 334 0 334 4L 334 300Q 334 304 330 304L 4 304Q 0 304 0 300Z" stroke="rgba(92,92,92,1)" stroke-width="2" fill-opacity="1" fill="#ccffcc"></path><g id="SvgjsG1094"><text id="SvgjsText1095" font-family="黑体" text-anchor="middle" font-size="16px" width="314px" fill="#323232" font-weight="400" align="top" lineHeight="200%" anchor="middle" family="黑体" size="16px" weight="400" font-style="" opacity="1" y="-8" transform="rotate(0)"><tspan id="SvgjsTspan1096" dy="32" x="167"><tspan id="SvgjsTspan1097" style="text-decoration:;">Server.Serve()</tspan></tspan></text></g></g><g id="SvgjsG1098" transform="translate(98,307)"><path id="SvgjsPath1099" d="M 0 4Q 0 0 4 0L 303 0Q 307 0 307 4L 307 39Q 307 43 303 43L 4 43Q 0 43 0 39Z" stroke="rgba(92,92,92,1)" stroke-width="2" fill-opacity="1" fill="#ffcccc"></path><g id="SvgjsG1100"><text id="SvgjsText1101" font-family="黑体" text-anchor="middle" font-size="16px" width="287px" fill="#323232" font-weight="400" align="middle" lineHeight="125%" anchor="middle" family="黑体" size="16px" weight="400" font-style="" opacity="1" y="9.5" transform="rotate(0)"><tspan id="SvgjsTspan1102" dy="20" x="153.5"><tspan id="SvgjsTspan1103" style="text-decoration:;">net.Listen()</tspan></tspan></text></g></g><g id="SvgjsG1104" transform="translate(98,383)"><path id="SvgjsPath1105" d="M 0 4Q 0 0 4 0L 303 0Q 307 0 307 4L 307 39Q 307 43 303 43L 4 43Q 0 43 0 39Z" stroke="rgba(92,92,92,1)" stroke-width="2" fill-opacity="1" fill="#ffcccc"></path><g id="SvgjsG1106"><text id="SvgjsText1107" font-family="黑体" text-anchor="middle" font-size="16px" width="287px" fill="#323232" font-weight="400" align="middle" lineHeight="125%" anchor="middle" family="黑体" size="16px" weight="400" font-style="" opacity="1" y="9.5" transform="rotate(0)"><tspan id="SvgjsTspan1108" dy="20" x="153.5"><tspan id="SvgjsTspan1109" style="text-decoration:;">net.ListenConfig.Listen()</tspan></tspan></text></g></g><g id="SvgjsG1110" transform="translate(98,464)"><path id="SvgjsPath1111" d="M 0 4Q 0 0 4 0L 303 0Q 307 0 307 4L 307 39Q 307 43 303 43L 4 43Q 0 43 0 39Z" stroke="rgba(92,92,92,1)" stroke-width="2" fill-opacity="1" fill="#ffcccc"></path><g id="SvgjsG1112"><text id="SvgjsText1113" font-family="黑体" text-anchor="middle" font-size="16px" width="287px" fill="#323232" font-weight="400" align="middle" lineHeight="125%" anchor="middle" family="黑体" size="16px" weight="400" font-style="" opacity="1" y="9.5" transform="rotate(0)"><tspan id="SvgjsTspan1114" dy="20" x="153.5"><tspan id="SvgjsTspan1115" style="text-decoration:;">net.sysListener.listenTCP()</tspan></tspan></text></g></g><g id="SvgjsG1116"><path id="SvgjsPath1117" d="M251.5 173L251.5 185L251.5 185L251.5 198" stroke="#5c5c5c" stroke-width="2" fill="none" marker-end="url(#SvgjsMarker1118)"></path></g><g id="SvgjsG1120"><path id="SvgjsPath1121" d="M251 241L251 255.5L251 255.5L251 271" stroke="#5c5c5c" stroke-width="2" fill="none" marker-end="url(#SvgjsMarker1122)"></path></g><g id="SvgjsG1124"><path id="SvgjsPath1125" d="M251.5 350L251.5 366L251.5 366L251.5 383" stroke="#5c5c5c" stroke-width="2" fill="none" marker-end="url(#SvgjsMarker1126)"></path></g><g id="SvgjsG1128"><path id="SvgjsPath1129" d="M251.5 426L251.5 444.5L251.5 444.5L251.5 464" stroke="#5c5c5c" stroke-width="2" fill="none" marker-end="url(#SvgjsMarker1130)"></path></g><g id="SvgjsG1132" transform="translate(156,549)"><path id="SvgjsPath1133" d="M 0 0L 190 0L 190 23L 0 23Z" stroke="none" fill="none"></path><g id="SvgjsG1134"><text id="SvgjsText1135" font-family="黑体" text-anchor="middle" font-size="16px" width="190px" fill="#323232" font-weight="400" align="middle" lineHeight="125%" anchor="middle" family="黑体" size="16px" weight="400" font-style="" opacity="1" y="-0.5" transform="rotate(0)"><tspan id="SvgjsTspan1136" dy="20" x="95"><tspan id="SvgjsTspan1137" style="text-decoration:;">go c.serve(connCtx)</tspan></tspan></text></g></g><g id="SvgjsG1138"><path id="SvgjsPath1139" d="M251 507L251 527.5L251 527.5L251 549" stroke="#5c5c5c" stroke-width="2" fill="none" marker-end="url(#SvgjsMarker1140)"></path></g><g id="SvgjsG1142" transform="translate(25,25)"><path id="SvgjsPath1143" d="M 0 0L 452 0L 452 43L 0 43Z" stroke="none" fill="none"></path><g id="SvgjsG1144"><text id="SvgjsText1145" font-family="微软雅黑" text-anchor="middle" font-size="24px" width="452px" fill="#323232" font-weight="700" align="middle" lineHeight="125%" anchor="middle" family="微软雅黑" size="24px" weight="700" font-style="" opacity="1" y="1.5" transform="rotate(0)"><tspan id="SvgjsTspan1146" dy="30" x="226"><tspan id="SvgjsTspan1147" style="text-decoration:;">http.ListenAndServe()调用路径箭线图</tspan></tspan></text></g></g></svg>